James Bond goes on his first ever mission as a 00. Le Chiffre is a banker to the world's terrorists. He is participating in a poker game at Montenegro, where he must win back his money, in order to stay safe among the terrorist market. The boss of MI6, known simply as M sends Bond, along with Vesper Lynd to attend this game and prevent Le Chiffre from winning. Bond, using help from Felix Leiter, Mathis and having Vesper pose as his wife, enters the most important poker game in his already dangerous career. But if Bond defeats Le Chiffre, will he and Vesper Lynd remain safe? 


Format : AVI
Format/Info : Audio Video Interleave
File size : 709 MiB
Duration : 2h 18mn
Overall bit rate : 716 Kbps
Writing application : MEncoder SVN-r29352(20090610-gcc4.3.3)
Writing library : MPlayer

Video
Format : avc1
Codec ID : avc1
Duration : 2h 18mn
Bit rate : 576 Kbps
Width : 480 pixels
Height : 360 pixels
Display aspect ratio : 4:3
Frame rate : 25.000 fps
Bits/(Pixel*Frame) : 0.133
Stream size : 570 MiB (80%)

Audio
ID : 1
Format : MPEG Audio
Format version : Version 1
Format profile : Layer 3
Mode : Joint stereo
Format_Settings_ModeExtension : MS Stereo
Codec ID : 55
Codec ID/Hint : MP3
Duration : 2h 18mn
Bit rate mode : Constant
Bit rate : 128 Kbps
Channel(s) : 2 channels
Sampling rate : 44.1 KHz
Stream size : 127 MiB (18%)
Alignment : Aligned on interleaves
Interleave, duration : 26 ms (0.65 video frame)
Interleave, preload duration : 522 ms
Writing library : LAME3.98